<?xml version="1.0"?>
<svg xmlns="http://www.w3.org/2000/svg" xmlns:xlink="http://www.w3.org/1999/xlink" xmlns:svgjs="http://svgjs.com/svgjs" version="1.1" width="512" height="512" x="0" y="0" viewBox="0 0 233.04 233.04" style="enable-background:new 0 0 512 512" xml:space="preserve" class=""><g>
<g xmlns="http://www.w3.org/2000/svg">
	<path d="M96.26,59.595C82,64.843,70.467,75.262,63.786,88.934c-0.001,0.003-0.003,0.005-0.004,0.007   c-3.934,8.053-5.929,16.708-5.929,25.725c0,15.67,6.103,30.402,17.183,41.483c0.003,0.003,0.006,0.005,0.009,0.008   c11.08,11.076,25.809,17.175,41.475,17.175c13.975,0,27.513-4.997,38.119-14.071c0.003-0.003,0.006-0.006,0.009-0.009   c13.052-11.17,20.538-27.42,20.538-44.587c0-9.015-1.993-17.668-5.925-25.72c-0.002-0.005-0.005-0.009-0.007-0.013   c-6.295-12.878-17.045-22.991-30.272-28.477c-5.103-2.116-10.952,0.306-13.068,5.407c-2.115,5.102,0.305,10.952,5.406,13.068   c8.723,3.617,15.814,10.289,19.967,18.787c0.001,0.002,0.001,0.004,0.002,0.005c2.586,5.295,3.897,10.996,3.897,16.943   c0,11.317-4.938,22.031-13.546,29.396c-0.001,0.001-0.002,0.001-0.003,0.002c-6.986,5.977-15.906,9.268-25.117,9.268   c-10.326,0-20.035-4.021-27.339-11.322c-0.001-0.001-0.002-0.002-0.003-0.003c-7.303-7.304-11.325-17.014-11.325-27.342   c0-5.949,1.312-11.65,3.899-16.946c0-0.001,0.001-0.002,0.001-0.003c4.343-8.89,12.148-15.944,21.413-19.353   c5.184-1.907,7.839-7.655,5.932-12.838C107.191,60.344,101.443,57.688,96.26,59.595z" fill="#a716cf" data-original="#000000" style="" class=""/>
	<path d="M181.707,171.781c0.006-0.007,0.011-0.014,0.017-0.021c13.841-15.795,21.463-36.07,21.463-57.093   c0-28.829-14.277-55.688-38.19-71.85c-0.004-0.003-0.008-0.007-0.013-0.01C150.645,33.12,133.887,28,116.52,28   c-20.032,0-39.572,6.997-55.02,19.701c-4.266,3.508-4.88,9.81-1.372,14.076c1.978,2.404,4.842,3.648,7.729,3.648   c2.235,0,4.484-0.746,6.346-2.277C86.082,53.379,101.11,48,116.52,48c13.361,0,26.247,3.935,37.266,11.379   c0.002,0.002,0.005,0.003,0.007,0.004c18.405,12.438,29.393,33.103,29.393,55.283c0,16.176-5.864,31.774-16.511,43.921   c-0.002,0.003-0.005,0.005-0.007,0.007c-12.669,14.45-30.947,22.738-50.147,22.738c-36.761,0-66.667-29.906-66.667-66.667   c0-5.523-4.478-10-10-10s-10,4.477-10,10c0,47.788,38.879,86.667,86.667,86.667C141.48,201.333,165.239,190.562,181.707,171.781z" fill="#a716cf" data-original="#000000" style="" class=""/>
	<path d="M206.855,177.553c-4.153-3.642-10.472-3.227-14.112,0.926c-19.256,21.963-47.038,34.56-76.223,34.56   c-5.522,0-10,4.477-10,10s4.478,10,10,10c34.944,0,68.208-15.081,91.262-41.375C211.423,187.512,211.008,181.194,206.855,177.553z" fill="#a716cf" data-original="#000000" style="" class=""/>
	<path d="M116.52,0C53.293,0,1.853,51.439,1.853,114.667v34.413c0,5.523,4.478,10,10,10s10-4.477,10-10v-34.413   C21.853,62.467,64.321,20,116.52,20s94.666,42.467,94.666,94.667V140c0,5.523,4.478,10,10,10s10-4.477,10-10v-25.333   C231.186,51.439,179.748,0,116.52,0z" fill="#a716cf" data-original="#000000" style="" class=""/>
	<path d="M116.048,106.033c4.33,0,8.222,2.411,10.156,6.292c2.464,4.942,8.468,6.954,13.41,4.49   c4.943-2.463,6.953-8.468,4.49-13.411c-5.34-10.715-16.091-17.371-28.057-17.371c-17.277,0-31.333,14.056-31.333,31.333   c0,10.943,5.563,20.913,14.88,26.669c1.638,1.012,3.453,1.494,5.246,1.494c3.352,0,6.626-1.685,8.517-4.746   c2.903-4.698,1.447-10.86-3.251-13.763c-3.376-2.086-5.392-5.695-5.392-9.654C104.715,111.117,109.799,106.033,116.048,106.033z" fill="#a716cf" data-original="#000000" style="" class=""/>
	<path d="M11.853,170c-5.522,0-10,4.477-10,10v17.128c0,5.523,4.478,10,10,10s10-4.477,10-10V180   C21.853,174.477,17.376,170,11.853,170z" fill="#a716cf" data-original="#000000" style="" class=""/>
</g>
<g xmlns="http://www.w3.org/2000/svg">
</g>
<g xmlns="http://www.w3.org/2000/svg">
</g>
<g xmlns="http://www.w3.org/2000/svg">
</g>
<g xmlns="http://www.w3.org/2000/svg">
</g>
<g xmlns="http://www.w3.org/2000/svg">
</g>
<g xmlns="http://www.w3.org/2000/svg">
</g>
<g xmlns="http://www.w3.org/2000/svg">
</g>
<g xmlns="http://www.w3.org/2000/svg">
</g>
<g xmlns="http://www.w3.org/2000/svg">
</g>
<g xmlns="http://www.w3.org/2000/svg">
</g>
<g xmlns="http://www.w3.org/2000/svg">
</g>
<g xmlns="http://www.w3.org/2000/svg">
</g>
<g xmlns="http://www.w3.org/2000/svg">
</g>
<g xmlns="http://www.w3.org/2000/svg">
</g>
<g xmlns="http://www.w3.org/2000/svg">
</g>
</g></svg>
